<?xml version="1.0" standalone="no"?>
<!DOCTYPE svg PUBLIC "-//W3C//DTD SVG 20010904//EN"
 "http://www.w3.org/TR/2001/REC-SVG-20010904/DTD/svg10.dtd">
<svg version="1.0" xmlns="http://www.w3.org/2000/svg"
 width="981.000000pt" height="832.000000pt" viewBox="0 0 981.000000 832.000000"
 preserveAspectRatio="xMidYMid meet">

<g transform="translate(0.000000,832.000000) scale(0.100000,-0.100000)"
fill="#000000" stroke="none">
<path d="M4545 8299 c-906 -90 -1718 -440 -2385 -1026 -568 -500 -1008 -1186
-1224 -1908 -185 -623 -223 -1234 -115 -1896 l21 -126 -102 -119 c-504 -585
-751 -1091 -727 -1488 26 -421 309 -686 832 -782 125 -23 588 -27 755 -6 574
71 1194 232 1877 488 1917 718 3977 2005 5243 3274 613 614 968 1148 1066
1605 89 415 -82 772 -452 941 -350 159 -936 169 -1607 28 l-69 -14 -86 73
c-540 457 -1208 773 -1904 901 -270 50 -365 58 -708 61 -179 2 -365 -1 -415
-6z m830 -473 c1289 -179 2349 -959 2883 -2124 l43 -92 62 71 c105 121 256
313 257 327 0 20 -72 157 -159 301 -95 157 -206 315 -324 461 l-85 105 42 7
c214 39 623 54 781 29 245 -38 394 -118 447 -239 62 -139 9 -386 -138 -647
-531 -943 -1954 -2147 -3714 -3142 -399 -226 -1009 -534 -1398 -706 -1098
-486 -2068 -761 -2762 -784 -216 -7 -362 6 -499 42 -193 52 -293 133 -327 266
-41 159 47 435 236 736 80 126 259 365 269 358 5 -2 21 -39 36 -82 72 -204
200 -469 337 -700 89 -149 91 -151 122 -147 221 29 454 69 464 78 1 2 -40 66
-91 143 -403 600 -614 1259 -634 1978 -17 627 116 1222 397 1770 565 1102
1609 1833 2840 1989 190 24 185 24 500 21 207 -2 331 -8 415 -19z"/>
<path d="M2570 4749 c-120 -20 -250 -106 -315 -209 -71 -113 -90 -274 -47
-395 77 -211 292 -341 505 -306 309 51 479 379 341 659 -88 181 -286 283 -484
251z"/>
<path d="M8935 4272 c-60 -58 -162 -152 -225 -210 l-115 -105 -12 -136 c-80
-868 -449 -1658 -1063 -2271 -590 -591 -1346 -954 -2200 -1056 -180 -22 -610
-25 -780 -5 -404 45 -769 143 -1125 301 -77 34 -147 64 -156 67 -8 2 -87 -18
-175 -45 -87 -28 -220 -67 -294 -87 -74 -21 -137 -39 -139 -41 -11 -10 241
-158 414 -244 442 -218 846 -339 1355 -407 169 -23 762 -26 930 -5 320 39 612
104 887 197 1252 422 2221 1404 2628 2665 77 241 138 521 171 795 18 150 31
654 18 677 -7 13 -30 -5 -119 -90z"/>
</g>
</svg>
