<?xml version="1.0" standalone="no"?>
<!DOCTYPE svg PUBLIC "-//W3C//DTD SVG 20010904//EN"
 "http://www.w3.org/TR/2001/REC-SVG-20010904/DTD/svg10.dtd">
<svg version="1.0" xmlns="http://www.w3.org/2000/svg"
 width="256.000000pt" height="256.000000pt" viewBox="0 0 256.000000 256.000000"
 preserveAspectRatio="xMidYMid meet">

<g transform="translate(0.000000,256.000000) scale(0.100000,-0.100000)"
fill="#000000" stroke="none">
<path d="M1160 2500 c-284 -29 -543 -153 -745 -355 -175 -175 -295 -400 -341
-642 -22 -117 -22 -329 0 -446 46 -242 166 -467 341 -642 175 -175 400 -295
642 -341 117 -22 329 -22 446 0 242 46 467 166 642 341 175 175 295 401 341
642 22 117 22 329 0 446 -82 433 -388 787 -808 935 -154 55 -358 79 -518 62z
m295 -115 c359 -58 664 -283 829 -612 213 -425 126 -942 -214 -1283 -169 -169
-380 -277 -615 -315 -481 -78 -956 169 -1179 612 -213 425 -126 942 214 1283
256 255 614 372 965 315z"/>
<path d="M1241 1797 c-7 -9 -12 -93 -13 -238 l-3 -224 -224 -3 c-145 -1 -229
-6 -238 -13 -17 -15 -17 -63 0 -78 9 -7 93 -12 238 -13 l224 -3 3 -224 c1
-145 6 -229 13 -238 15 -17 63 -17 78 0 7 9 12 93 13 238 l3 224 224 3 c145 1
229 6 238 13 7 6 13 24 13 39 0 15 -6 33 -13 39 -9 7 -93 12 -238 13 l-224 3
-3 224 c-1 145 -6 229 -13 238 -6 7 -24 13 -39 13 -15 0 -33 -6 -39 -13z"/>
</g>
</svg>
