<?xml version="1.0" standalone="no"?>
<!DOCTYPE svg PUBLIC "-//W3C//DTD SVG 20010904//EN"
 "http://www.w3.org/TR/2001/REC-SVG-20010904/DTD/svg10.dtd">
<svg version="1.0" xmlns="http://www.w3.org/2000/svg"
 width="50.000000pt" height="45.000000pt" viewBox="0 0 50.000000 45.000000"
 preserveAspectRatio="xMidYMid meet">

<g transform="translate(0.000000,45.000000) scale(0.100000,-0.100000)"
fill="#000000" stroke="none">
<path d="M125 355 c-110 -87 -139 -115 -120 -115 4 0 58 41 121 90 63 50 118
90 123 90 5 0 59 -41 120 -91 61 -50 117 -89 123 -87 10 4 -218 198 -240 205
-4 2 -61 -40 -127 -92z"/>
<path d="M40 115 l0 -115 85 0 85 0 0 60 0 60 40 0 39 0 3 -57 3 -58 83 -3 82
-3 0 111 c0 67 -4 110 -10 110 -6 0 -10 -40 -10 -100 l0 -100 -65 0 -64 0 -3
58 -3 57 -55 0 -55 0 -3 -58 -3 -57 -64 0 -65 0 0 105 c0 63 -4 105 -10 105
-6 0 -10 -45 -10 -115z"/>
</g>
</svg>
